<svg width="120" height="120" viewBox="0 0 120 120" fill="none" xmlns="http://www.w3.org/2000/svg">
<path d="M6 43C6 35.8203 11.8203 30 19 30H101C108.18 30 114 35.8203 114 43V95C114 102.18 108.18 108 101 108H19C11.8203 108 6 102.18 6 95V43Z" fill="#C4C4C4"/>
<path d="M25.0253 30H101C108.18 30 114 35.8203 114 43V90.2861C102.155 98.7093 83.8268 102 65.9179 102C35.9638 102 18 79.3925 18 52.3631C18 44.0728 20.5815 36.5065 25.0253 30Z" fill="url(#paint0_radial_101_74)"/>
<path d="M19 31.5H101C107.351 31.5 112.5 36.6487 112.5 43V95C112.5 101.351 107.351 106.5 101 106.5H19C12.6487 106.5 7.5 101.351 7.5 95V43C7.5 36.6487 12.6487 31.5 19 31.5Z" stroke="#555555" stroke-opacity="0.7" stroke-width="3"/>
<g filter="url(#filter0_d_101_74)">
<rect x="42" y="84" width="36" height="27" rx="3" fill="#C4C4C4"/>
<rect x="43.5" y="85.5" width="33" height="24" rx="1.5" stroke="#767676" stroke-opacity="0.66" stroke-width="3"/>
</g>
<circle cx="85" cy="61" r="18" fill="#72B6FD"/>
<circle cx="85" cy="61" r="18" fill="url(#paint1_radial_101_74)"/>
<circle cx="85" cy="61" r="17" stroke="#606060" stroke-opacity="0.75" stroke-width="2"/>
<circle cx="85" cy="61" r="17" stroke="url(#paint2_radial_101_74)" stroke-opacity="0.2" stroke-width="2"/>
<circle cx="34" cy="61" r="18" fill="#72B6FD"/>
<circle cx="34" cy="61" r="18" fill="url(#paint3_radial_101_74)"/>
<circle cx="34" cy="61" r="17" stroke="#606060" stroke-opacity="0.75" stroke-width="2"/>
<circle cx="34" cy="61" r="17" stroke="url(#paint4_radial_101_74)" stroke-opacity="0.2" stroke-width="2"/>
<g filter="url(#filter1_f_101_74)">
<path d="M46 78.9705C48.5277 77.0313 51.0953 72.2485 52.2174 72.7113C53.8457 73.3829 52.7826 81.9579 53.2982 81.9579C53.8139 81.9579 55.46 73.4226 56.9474 73.4226C58.4348 73.4226 56.5904 81.2466 56.9474 81.9579C57.3043 82.6692 61.8261 74.1338 62.4211 73.9916C63.016 73.8493 60.2792 81.9579 61.0526 81.9579C61.8261 81.9579 65.2174 72 66.0702 72C66.923 72 66.3478 75.7924 66.3478 77.6902C66.3478 79.5881 67.1808 81.9579 67.8947 81.9579C68.6087 81.9579 70.2151 73.4226 70.8696 73.4226C71.524 73.4226 72 78.9705 72 78.9705" stroke="#EEB3B3" stroke-opacity="0.4" stroke-width="3" stroke-linecap="round"/>
</g>
<circle cx="18.5" cy="83.5" r="4.5" fill="#C0C0C0"/>
<circle cx="18.5" cy="83.5" r="4.5" fill="url(#paint5_radial_101_74)"/>
<circle cx="18.5" cy="83.5" r="4" stroke="#888888" stroke-opacity="0.2"/>
<circle cx="100.5" cy="83.5" r="4.5" fill="#C0C0C0"/>
<circle cx="100.5" cy="83.5" r="4.5" fill="url(#paint6_radial_101_74)"/>
<circle cx="100.5" cy="83.5" r="4" stroke="#888888" stroke-opacity="0.2"/>
<defs>
<filter id="filter0_d_101_74" x="38" y="84" width="44" height="35" filterUnits="userSpaceOnUse" color-interpolation-filters="sRGB">
<feFlood flood-opacity="0" result="BackgroundImageFix"/>
<feColorMatrix in="SourceAlpha" type="matrix" values="0 0 0 0 0 0 0 0 0 0 0 0 0 0 0 0 0 0 127 0" result="hardAlpha"/>
<feOffset dy="4"/>
<feGaussianBlur stdDeviation="2"/>
<feComposite in2="hardAlpha" operator="out"/>
<feColorMatrix type="matrix" values="0 0 0 0 0 0 0 0 0 0 0 0 0 0 0 0 0 0 0.25 0"/>
<feBlend mode="normal" in2="BackgroundImageFix" result="effect1_dropShadow_101_74"/>
<feBlend mode="normal" in="SourceGraphic" in2="effect1_dropShadow_101_74" result="shape"/>
</filter>
<filter id="filter1_f_101_74" x="42.5" y="68.5" width="33" height="17.0002" filterUnits="userSpaceOnUse" color-interpolation-filters="sRGB">
<feFlood flood-opacity="0" result="BackgroundImageFix"/>
<feBlend mode="normal" in="SourceGraphic" in2="BackgroundImageFix" result="shape"/>
<feGaussianBlur stdDeviation="1" result="effect1_foregroundBlur_101_74"/>
</filter>
<radialGradient id="paint0_radial_101_74" cx="0" cy="0" r="1" gradientUnits="userSpaceOnUse" gradientTransform="translate(78.5 49.5) rotate(106.39) scale(44.3001 53.7561)">
<stop stop-color="white"/>
<stop offset="0.572917" stop-color="white" stop-opacity="0.671875"/>
<stop offset="1" stop-color="white" stop-opacity="0"/>
</radialGradient>
<radialGradient id="paint1_radial_101_74" cx="0" cy="0" r="1" gradientUnits="userSpaceOnUse" gradientTransform="translate(86.8462 59.1538) rotate(130.764) scale(17.6716 19.1897)">
<stop stop-color="#B0D2FF"/>
<stop offset="0.572917" stop-color="#9FB9FF" stop-opacity="0.837548"/>
<stop offset="0.677083" stop-color="#90A4FF" stop-opacity="0.694159"/>
<stop offset="1" stop-color="#7176FF" stop-opacity="0.39"/>
</radialGradient>
<radialGradient id="paint2_radial_101_74" cx="0" cy="0" r="1" gradientUnits="userSpaceOnUse" gradientTransform="translate(85 61) rotate(90) scale(12.4615 14.2798)">
<stop stop-color="white"/>
<stop offset="1" stop-color="white"/>
</radialGradient>
<radialGradient id="paint3_radial_101_74" cx="0" cy="0" r="1" gradientUnits="userSpaceOnUse" gradientTransform="translate(35.8462 59.1538) rotate(130.764) scale(17.6716 19.1897)">
<stop stop-color="#B0D2FF"/>
<stop offset="0.572917" stop-color="#9FB9FF" stop-opacity="0.837548"/>
<stop offset="0.677083" stop-color="#90A4FF" stop-opacity="0.694159"/>
<stop offset="1" stop-color="#7176FF" stop-opacity="0.39"/>
</radialGradient>
<radialGradient id="paint4_radial_101_74" cx="0" cy="0" r="1" gradientUnits="userSpaceOnUse" gradientTransform="translate(34 61) rotate(90) scale(12.4615 14.2798)">
<stop stop-color="white"/>
<stop offset="1" stop-color="white"/>
</radialGradient>
<radialGradient id="paint5_radial_101_74" cx="0" cy="0" r="1" gradientUnits="userSpaceOnUse" gradientTransform="translate(20 82.5) rotate(105.255) scale(5.70088 6.19063)">
<stop stop-color="white"/>
<stop offset="1" stop-color="#717171" stop-opacity="0.39"/>
</radialGradient>
<radialGradient id="paint6_radial_101_74" cx="0" cy="0" r="1" gradientUnits="userSpaceOnUse" gradientTransform="translate(102 82.5) rotate(105.255) scale(5.70088 6.19063)">
<stop stop-color="white"/>
<stop offset="1" stop-color="#717171" stop-opacity="0.39"/>
</radialGradient>
</defs>
</svg>
